<?xml version="1.0" encoding="UTF-8"?>
<svg id="New_Layer" xmlns="http://www.w3.org/2000/svg" version="1.1" xmlns:xlink="http://www.w3.org/1999/xlink" viewBox="0 0 222.55 193.34">
  <!-- Generator: Adobe Illustrator 29.8.2, SVG Export Plug-In . SVG Version: 2.1.1 Build 3)  -->
  <defs>
    <style>
      .st0 {
        fill: #1d1d1b;
      }

      .st1 {
        fill: #f39200;
      }

      .st2 {
        fill: url(#Degradado_sin_nombre_8);
        stroke: #ffed00;
      }

      .st2, .st3 {
        stroke-miterlimit: 10;
      }

      .st4 {
        fill: #080405;
      }

      .st4, .st3 {
        fill-rule: evenodd;
      }

      .st3 {
        fill: none;
        stroke: #1d1d1b;
        stroke-width: 3px;
      }
    </style>
    <radialGradient id="Degradado_sin_nombre_8" data-name="Degradado sin nombre 8" cx="92.26" cy="76.47" fx="92.26" fy="76.47" r="35.68" gradientTransform="translate(0 -80.74) scale(1 2.06)" gradientUnits="userSpaceOnUse">
      <stop offset="0" stop-color="#f39200"/>
      <stop offset=".2" stop-color="#f39600"/>
      <stop offset=".41" stop-color="#f5a300"/>
      <stop offset=".64" stop-color="#f8b800"/>
      <stop offset=".86" stop-color="#fcd600"/>
      <stop offset="1" stop-color="#ffed00"/>
    </radialGradient>
  </defs>
  <g>
    <path class="st4" d="M188.11,134.63c-4.07.89-7.31,3.36-9.02,6.88-.97,1.95-1.28,3.6-1.17,6.01.15,3.32,1.21,5.69,3.66,8.18,1.13,1.13,1.75,1.58,3.16,2.28,2.44,1.19,4.18,1.59,6.86,1.59,3.01,0,5.88-.72,7.85-1.97l.76-.48,2.01,1.97,1.99,1.97h1.62c.87,0,1.6-.07,1.6-.15,0-.09-.22-.35-.48-.61-.26-.24-1.41-1.43-2.53-2.61l-2.05-2.19.84-1.09c1.08-1.43,1.52-2.37,1.99-4.17.63-2.47.45-5.73-.43-7.81-1.6-3.84-5.04-6.68-9.28-7.7-1.84-.45-5.52-.48-7.38-.09ZM194.3,137.04c3.09.57,6.23,2.89,7.51,5.51.67,1.35,1.15,3.28,1.15,4.62,0,1.89-1.19,5.06-2.29,6.06-.32.28-.45.19-2.27-1.63l-1.95-1.93-.84.82c-.46.45-.84.91-.84,1,0,.11.82,1,1.8,2l1.8,1.8-1.39.67c-1.95.91-3.74,1.26-5.93,1.15-3.16-.19-5.52-1.19-7.55-3.19-2.34-2.36-3.37-5.84-2.66-9.22.33-1.61,1.58-3.75,2.92-4.99,2.7-2.52,6.41-3.47,10.52-2.67Z"/>
    <path class="st4" d="M27.92,134.85c-6.1,1.3-10.15,6.1-10.21,12.11-.02,3.38,1.08,6.16,3.37,8.4,1.64,1.61,2.27,2.08,3.89,2.84,3.05,1.43,6.79,1.78,10.15.93,1.88-.48,4.22-1.59,5.34-2.52l.65-.54-.86-.85-.84-.85-1.34.82c-4.39,2.71-9.63,2.58-13.7-.33-3.33-2.36-4.78-7.05-3.42-11,.74-2.13,2.21-3.99,4.13-5.19,3.7-2.34,8.83-2.19,12.18.33.54.41,1.06.74,1.15.74s.46-.37.86-.83l.69-.85-.73-.74c-.91-.95-3.31-2.13-5-2.49-1.65-.35-4.63-.33-6.3.04Z"/>
    <path class="st4" d="M47.52,134.79c0,.11,8.55,12.28,9.32,13.26.33.41.35.85.35,5.69v5.27h2.79v-10.57l1.36-1.89c6.17-8.64,8.14-11.46,8.09-11.59-.09-.22-3.18-.06-3.44.19-.24.24-5.15,7.16-6.56,9.25-.46.69-.87,1.24-.93,1.24s-.76-.98-1.58-2.17c-.84-1.19-2.51-3.62-3.72-5.36l-2.23-3.21h-1.43c-.78,0-1.54-.06-1.71-.11s-.3-.06-.3,0Z"/>
    <path class="st4" d="M103.29,134.85c-.78.09-.37-.35-7.29,7.7l-4.57,5.34-1.8-2.1c-.99-1.13-3.55-4.06-5.71-6.49l-3.92-4.4h-2.16v24.13l1.36-.06,1.34-.06v-19.6l.61.72c2.45,2.78,7.44,8.6,8.59,10.01.76.93,1.49,1.71,1.58,1.71.11.02,1.3-1.26,2.64-2.82,4.83-5.62,6.06-7.08,6.77-7.97l.73-.91v18.95h2.79l.04-11.87c0-6.53.02-11.96.04-12.09.02-.26-.15-.3-1.02-.2Z"/>
    <path class="st4" d="M149.05,146.87v12.15h2.79v-21.88h4.15c4.56,0,6.21.22,7.4,1,1.86,1.24,1.99,4.64.24,6.27-1.12,1.04-2.16,1.34-5.08,1.45-1.62.06-2.71.17-2.75.3-.06.17,2.77,3.88,8.03,10.51l1.86,2.34,1.92.02c1.73,0,2.23-.13,1.71-.46-.19-.11-6.94-8.12-8.13-9.64l-.58-.76,1.28-.2c4.26-.67,6.69-4.01,5.86-8.01-.46-2.26-1.43-3.52-3.37-4.4-1.49-.69-2.99-.82-9.33-.82h-6.01v12.15Z"/>
    <path class="st4" d="M124.13,137.73c-.74,1.56-2.62,5.51-4.18,8.77s-3.55,7.38-4.44,9.12c-.87,1.76-1.6,3.25-1.6,3.3s.73.09,1.6.09h1.58l1.41-2.93c2.18-4.52,4.39-9.24,6.25-13.33.95-2.06,1.77-3.75,1.82-3.76.07,0,.3.41.5.91.22.48,1.77,3.76,3.44,7.27,1.67,3.5,3.61,7.6,4.31,9.11l1.28,2.74h1.54c.86,0,1.54-.02,1.54-.06s-1.69-3.56-3.77-7.83c-2.08-4.28-4.69-9.68-5.8-12.02l-2.03-4.21h-2.1l-1.36,2.82Z"/>
  </g>
  <g>
    <path class="st0" d="M17.76,173.53l2.75-6.03h.44l2.75,6.03h-.47l-2.6-5.75h.19l-2.59,5.75h-.47ZM18.77,171.83l.15-.37h3.58l.15.37h-3.87Z"/>
    <path class="st0" d="M24.78,173.53v-6.03h2.14c.75,0,1.34.18,1.77.53.43.36.64.86.64,1.5,0,.42-.1.78-.29,1.08-.19.3-.47.53-.83.7-.36.16-.79.25-1.29.25h-1.91l.2-.21v2.18h-.44ZM25.22,171.38l-.2-.21h1.91c.64,0,1.13-.14,1.47-.43.33-.29.5-.69.5-1.21s-.17-.92-.5-1.21c-.33-.28-.82-.43-1.47-.43h-1.91l.2-.21v3.69ZM28.93,173.53l-1.56-2.19h.5l1.56,2.19h-.5Z"/>
    <path class="st0" d="M33.47,173.57c-.44,0-.86-.08-1.23-.23-.38-.15-.71-.37-.99-.65-.28-.28-.5-.6-.65-.97s-.23-.77-.23-1.21.08-.84.23-1.21.37-.69.65-.97c.28-.28.61-.49.99-.65.38-.15.79-.23,1.23-.23s.86.08,1.23.23c.38.15.71.37.99.64s.5.6.65.97c.16.37.23.78.23,1.22s-.08.85-.23,1.22c-.16.37-.37.69-.65.97s-.61.49-.99.64c-.38.15-.79.23-1.23.23ZM33.47,173.17c.38,0,.73-.07,1.06-.2s.61-.32.85-.56.43-.52.56-.84.2-.67.2-1.05-.07-.73-.2-1.05-.32-.6-.56-.84-.52-.43-.85-.56-.68-.2-1.06-.2-.73.07-1.06.2-.61.32-.85.56-.43.52-.56.84-.2.67-.2,1.05.07.73.2,1.05.32.6.56.84.53.43.85.56.68.2,1.06.2ZM35.44,174.68c-.17,0-.34-.02-.5-.07-.16-.05-.33-.12-.5-.21s-.34-.22-.51-.37-.36-.33-.56-.55l.5-.12c.18.21.36.39.54.53.18.14.35.25.53.31s.34.1.5.1c.47,0,.86-.19,1.18-.58l.23.27c-.36.45-.83.68-1.41.68Z"/>
    <path class="st0" d="M40.44,173.57c-.74,0-1.32-.22-1.75-.65s-.64-1.08-.64-1.95v-3.47h.44v3.45c0,.75.17,1.31.51,1.67.34.36.83.54,1.45.54s1.1-.18,1.44-.54c.34-.36.51-.92.51-1.67v-3.45h.44v3.47c0,.86-.21,1.51-.64,1.95s-1.01.65-1.76.65Z"/>
    <path class="st0" d="M44.87,173.53v-6.03h.44v6.03h-.44Z"/>
    <path class="st0" d="M48.54,173.53v-5.63h-2.15v-.4h4.74v.4h-2.15v5.63h-.44Z"/>
    <path class="st0" d="M52.2,173.53v-6.03h4v.4h-3.56v5.23h3.69v.4h-4.13ZM52.59,170.66v-.39h3.24v.39h-3.24Z"/>
    <path class="st0" d="M60.42,173.57c-.44,0-.86-.08-1.23-.23-.38-.15-.71-.37-.99-.64-.28-.28-.5-.6-.65-.97s-.23-.78-.23-1.22.08-.85.23-1.22.37-.69.65-.97c.28-.28.61-.49.99-.64.38-.15.79-.23,1.23-.23.42,0,.82.07,1.18.21.37.14.68.35.94.63l-.27.28c-.26-.25-.54-.43-.85-.55s-.64-.17-.99-.17c-.38,0-.74.07-1.06.2s-.61.32-.85.56-.43.52-.56.84-.2.67-.2,1.05.07.73.2,1.05.32.6.56.84.53.43.85.56.68.2,1.06.2c.35,0,.68-.06.99-.17.31-.11.59-.3.85-.56l.27.28c-.26.28-.58.49-.94.63-.37.14-.76.21-1.18.21Z"/>
    <path class="st0" d="M64.96,173.53v-5.63h-2.15v-.4h4.74v.4h-2.15v5.63h-.44Z"/>
    <path class="st0" d="M70.85,173.57c-.74,0-1.32-.22-1.75-.65s-.64-1.08-.64-1.95v-3.47h.44v3.45c0,.75.17,1.31.51,1.67.34.36.83.54,1.45.54s1.1-.18,1.44-.54c.34-.36.51-.92.51-1.67v-3.45h.44v3.47c0,.86-.21,1.51-.64,1.95s-1.01.65-1.76.65Z"/>
    <path class="st0" d="M75.28,173.53v-6.03h2.14c.75,0,1.34.18,1.77.53.43.36.64.86.64,1.5,0,.42-.1.78-.29,1.08-.19.3-.47.53-.83.7-.36.16-.79.25-1.29.25h-1.91l.2-.21v2.18h-.44ZM75.72,171.38l-.2-.21h1.91c.64,0,1.13-.14,1.47-.43.33-.29.5-.69.5-1.21s-.17-.92-.5-1.21c-.33-.28-.82-.43-1.47-.43h-1.91l.2-.21v3.69ZM79.43,173.53l-1.56-2.19h.5l1.56,2.19h-.5Z"/>
    <path class="st0" d="M80.43,173.53l2.75-6.03h.44l2.75,6.03h-.47l-2.6-5.75h.19l-2.59,5.75h-.47ZM81.44,171.83l.15-.37h3.58l.15.37h-3.87Z"/>
    <path class="st1" d="M89.14,171.41v-.39h2.2v.39h-2.2Z"/>
    <path class="st0" d="M95.1,173.53v-6.03h2.37c.63,0,1.19.13,1.67.39.48.26.85.61,1.11,1.07.27.45.4.97.4,1.56s-.13,1.11-.4,1.56c-.26.45-.64.81-1.11,1.07-.48.26-1.03.39-1.67.39h-2.37ZM95.54,173.13h1.9c.56,0,1.05-.11,1.47-.33.42-.22.74-.53.97-.93.23-.39.34-.84.34-1.36s-.11-.96-.34-1.36c-.23-.39-.55-.7-.97-.93s-.91-.34-1.47-.34h-1.9v5.23Z"/>
    <path class="st0" d="M102.16,173.53v-6.03h.44v6.03h-.44Z"/>
    <path class="st0" d="M106.25,173.57c-.44,0-.86-.08-1.26-.23-.4-.15-.7-.35-.92-.59l.2-.33c.21.21.49.39.84.54.36.15.73.22,1.13.22s.73-.05.98-.16c.25-.11.44-.25.56-.43s.18-.38.18-.59c0-.26-.07-.47-.21-.62-.14-.16-.32-.28-.54-.37s-.46-.17-.73-.23c-.26-.06-.53-.13-.79-.2-.27-.07-.51-.17-.73-.28s-.4-.27-.53-.47c-.13-.2-.2-.46-.2-.77,0-.29.07-.55.22-.79.15-.24.38-.44.69-.58.31-.15.71-.22,1.21-.22.33,0,.66.05.98.15s.6.23.82.4l-.16.35c-.25-.17-.52-.3-.81-.38-.29-.08-.57-.12-.83-.12-.38,0-.7.05-.95.16-.25.11-.44.25-.56.43s-.18.38-.18.61c0,.26.07.46.2.62.13.16.31.28.53.37s.47.17.73.23c.27.06.53.13.79.2.26.07.5.17.73.28.22.12.4.27.54.46.14.2.21.45.21.76,0,.28-.08.54-.23.79s-.39.44-.71.58c-.32.15-.72.22-1.22.22Z"/>
    <path class="st0" d="M109.89,173.53v-6.03h4v.4h-3.56v5.23h3.69v.4h-4.13ZM110.27,170.66v-.39h3.24v.39h-3.24Z"/>
    <path class="st0" d="M115.6,173.53v-6.03h.37l4.26,5.48h-.2v-5.48h.44v6.03h-.36l-4.27-5.48h.2v5.48h-.44ZM118.66,166.95c-.14,0-.27-.03-.37-.09s-.2-.13-.29-.21c-.09-.08-.18-.15-.27-.21-.09-.06-.19-.09-.3-.09-.14,0-.25.05-.32.16-.08.11-.13.25-.14.42h-.3c0-.25.07-.46.2-.63.13-.17.31-.26.54-.26.14,0,.27.03.38.09.11.06.21.13.29.21.09.08.18.15.27.21.09.06.19.09.29.09.14,0,.25-.06.33-.17.08-.11.12-.24.13-.39h.3c0,.25-.07.46-.21.62-.13.16-.31.25-.54.25Z"/>
    <path class="st0" d="M125.09,173.57c-.44,0-.86-.08-1.23-.23-.38-.15-.71-.37-.99-.65-.28-.28-.5-.6-.65-.97s-.23-.77-.23-1.21.08-.84.23-1.21.37-.69.65-.97c.28-.28.61-.49.99-.65.38-.15.79-.23,1.23-.23s.86.08,1.23.23c.38.15.71.37.99.64s.5.6.65.97.23.78.23,1.22-.08.85-.23,1.22-.38.69-.65.97-.61.49-.99.64c-.38.15-.79.23-1.23.23ZM125.09,173.17c.38,0,.73-.07,1.06-.2s.61-.32.85-.56.43-.52.56-.84c.13-.32.2-.67.2-1.05s-.07-.74-.2-1.05c-.13-.32-.32-.6-.56-.84s-.52-.43-.85-.56-.68-.2-1.06-.2-.73.07-1.06.2-.61.32-.85.56-.43.52-.56.84c-.13.32-.2.67-.2,1.05s.07.73.2,1.05.32.6.56.84.53.43.85.56.68.2,1.06.2Z"/>
    <path class="st1" d="M131.4,171.41v-.39h2.2v.39h-2.2Z"/>
    <path class="st0" d="M139.89,173.57c-.44,0-.86-.08-1.23-.23-.38-.15-.71-.37-.99-.64-.28-.28-.5-.6-.65-.97-.15-.37-.23-.78-.23-1.22s.08-.85.23-1.22c.15-.37.37-.69.65-.97s.61-.49.99-.64c.38-.15.79-.23,1.23-.23s.82.07,1.18.21.68.35.94.63l-.27.28c-.26-.25-.54-.43-.85-.55s-.64-.17-.99-.17c-.38,0-.74.07-1.06.2-.33.13-.61.32-.85.56-.24.24-.43.52-.56.84s-.2.67-.2,1.05.07.73.2,1.05.32.6.56.84c.24.24.53.43.85.56.33.13.68.2,1.06.2.35,0,.68-.06.99-.17.31-.11.59-.3.85-.56l.27.28c-.26.28-.58.49-.94.63s-.76.21-1.18.21Z"/>
    <path class="st0" d="M145.64,173.57c-.44,0-.86-.08-1.23-.23-.38-.15-.71-.37-.99-.65s-.5-.6-.65-.97c-.15-.37-.23-.77-.23-1.21s.08-.84.23-1.21c.15-.37.37-.69.65-.97s.61-.49.99-.65c.38-.15.79-.23,1.23-.23s.86.08,1.23.23c.38.15.71.37.99.64s.5.6.65.97c.16.37.24.78.24,1.22s-.08.85-.24,1.22c-.16.37-.37.69-.65.97s-.61.49-.99.64c-.38.15-.79.23-1.23.23ZM145.64,173.17c.38,0,.74-.07,1.06-.2.33-.13.61-.32.85-.56s.43-.52.56-.84.2-.67.2-1.05-.07-.74-.2-1.05c-.13-.32-.32-.6-.56-.84s-.52-.43-.85-.56c-.32-.13-.68-.2-1.06-.2s-.73.07-1.06.2c-.32.13-.61.32-.85.56-.24.24-.43.52-.56.84-.13.32-.2.67-.2,1.05s.07.73.2,1.05.32.6.56.84c.24.24.53.43.85.56.33.13.68.2,1.06.2Z"/>
    <path class="st0" d="M150.26,173.53v-6.03h.37l4.26,5.48h-.2v-5.48h.44v6.03h-.36l-4.27-5.48h.2v5.48h-.44Z"/>
    <path class="st0" d="M158.79,173.57c-.44,0-.86-.08-1.26-.23-.4-.15-.7-.35-.92-.59l.2-.33c.21.21.49.39.84.54.36.15.73.22,1.13.22s.72-.05.98-.16c.25-.11.44-.25.56-.43.12-.18.18-.38.18-.59,0-.26-.07-.47-.21-.62-.14-.16-.32-.28-.54-.37-.22-.09-.46-.17-.73-.23-.26-.06-.53-.13-.79-.2-.27-.07-.51-.17-.73-.28-.22-.12-.4-.27-.53-.47-.13-.2-.2-.46-.2-.77,0-.29.07-.55.22-.79.15-.24.38-.44.69-.58.31-.15.71-.22,1.2-.22.33,0,.66.05.98.15.32.1.6.23.83.4l-.16.35c-.25-.17-.52-.3-.81-.38-.29-.08-.56-.12-.83-.12-.38,0-.7.05-.95.16s-.44.25-.56.43c-.12.18-.18.38-.18.61,0,.26.07.46.2.62.13.16.31.28.53.37.22.09.47.17.74.23.27.06.53.13.79.2.26.07.5.17.73.28.22.12.4.27.54.46.14.2.21.45.21.76,0,.28-.08.54-.23.79-.15.24-.39.44-.71.58s-.72.22-1.22.22Z"/>
    <path class="st0" d="M163.48,173.53v-5.63h-2.15v-.4h4.74v.4h-2.15v5.63h-.44Z"/>
    <path class="st0" d="M167.14,173.53v-6.03h2.15c.75,0,1.34.18,1.77.53.43.36.64.86.64,1.5,0,.42-.1.78-.29,1.08-.19.3-.47.53-.83.7-.36.16-.79.25-1.29.25h-1.91l.2-.21v2.18h-.44ZM167.58,171.38l-.2-.21h1.91c.64,0,1.13-.14,1.46-.43s.5-.69.5-1.21-.17-.92-.5-1.21-.82-.43-1.46-.43h-1.91l.2-.21v3.69ZM171.29,173.53l-1.56-2.19h.5l1.55,2.19h-.5Z"/>
    <path class="st0" d="M175.63,173.57c-.74,0-1.32-.22-1.75-.65-.43-.44-.64-1.08-.64-1.95v-3.47h.44v3.45c0,.75.17,1.31.51,1.67.34.36.83.54,1.45.54s1.1-.18,1.44-.54c.34-.36.51-.92.51-1.67v-3.45h.44v3.47c0,.86-.21,1.51-.64,1.95-.43.44-1.01.65-1.76.65Z"/>
    <path class="st0" d="M182.6,173.57c-.44,0-.86-.08-1.23-.23-.38-.15-.71-.37-.99-.64-.28-.28-.5-.6-.65-.97-.15-.37-.23-.78-.23-1.22s.08-.85.23-1.22c.15-.37.37-.69.65-.97s.61-.49.99-.64c.38-.15.79-.23,1.23-.23s.82.07,1.18.21.68.35.94.63l-.27.28c-.26-.25-.54-.43-.85-.55s-.64-.17-.99-.17c-.38,0-.74.07-1.06.2-.33.13-.61.32-.85.56-.24.24-.43.52-.56.84s-.2.67-.2,1.05.07.73.2,1.05.32.6.56.84c.24.24.53.43.85.56.33.13.68.2,1.06.2.35,0,.68-.06.99-.17.31-.11.59-.3.85-.56l.27.28c-.26.28-.58.49-.94.63s-.76.21-1.18.21Z"/>
    <path class="st0" d="M188.33,173.57c-.44,0-.86-.08-1.23-.23-.38-.15-.71-.37-.99-.64-.28-.28-.5-.6-.65-.97-.15-.37-.23-.78-.23-1.22s.08-.85.23-1.22c.15-.37.37-.69.65-.97s.61-.49.99-.64c.38-.15.79-.23,1.23-.23s.82.07,1.18.21.68.35.94.63l-.27.28c-.26-.25-.54-.43-.85-.55s-.64-.17-.99-.17c-.38,0-.74.07-1.06.2-.33.13-.61.32-.85.56-.24.24-.43.52-.56.84s-.2.67-.2,1.05.07.73.2,1.05.32.6.56.84c.24.24.53.43.85.56.33.13.68.2,1.06.2.35,0,.68-.06.99-.17.31-.11.59-.3.85-.56l.27.28c-.26.28-.58.49-.94.63s-.76.21-1.18.21Z"/>
    <path class="st0" d="M191.83,173.53v-6.03h.44v6.03h-.44Z"/>
    <path class="st0" d="M196.89,173.57c-.44,0-.86-.08-1.23-.23-.38-.15-.71-.37-.99-.65s-.5-.6-.65-.97c-.15-.37-.23-.77-.23-1.21s.08-.84.23-1.21c.15-.37.37-.69.65-.97s.61-.49.99-.65c.38-.15.79-.23,1.23-.23s.86.08,1.23.23c.38.15.71.37.99.64s.5.6.65.97c.16.37.24.78.24,1.22s-.08.85-.24,1.22c-.16.37-.37.69-.65.97s-.61.49-.99.64c-.38.15-.79.23-1.23.23ZM196.89,173.17c.38,0,.74-.07,1.06-.2.33-.13.61-.32.85-.56s.43-.52.56-.84.2-.67.2-1.05-.07-.74-.2-1.05c-.13-.32-.32-.6-.56-.84s-.52-.43-.85-.56c-.32-.13-.68-.2-1.06-.2s-.73.07-1.06.2c-.32.13-.61.32-.85.56-.24.24-.43.52-.56.84-.13.32-.2.67-.2,1.05s.07.73.2,1.05.32.6.56.84c.24.24.53.43.85.56.33.13.68.2,1.06.2ZM196.41,167.01l1.19-1.02h.62l-1.34,1.02h-.46Z"/>
    <path class="st0" d="M201.52,173.53v-6.03h.37l4.26,5.48h-.2v-5.48h.44v6.03h-.36l-4.27-5.48h.2v5.48h-.44Z"/>
  </g>
  <rect class="st2" x="67.5" y="32.49" width="49.51" height="87.95" rx="9.9" ry="9.9"/>
  <polyline class="st3" points="17.72 118.96 52.49 118.96 52.49 83.91 137.2 40.11 137.2 11.14 99.63 11.14 99.63 106.78 172.97 106.78 172.97 71.29 137.35 49.83 137.35 118.96 207.43 118.96"/>
</svg>